<svg width="117" height="30" viewBox="0 0 117 30" fill="none" xmlns="http://www.w3.org/2000/svg">
<rect width="30" height="30" rx="2" fill="black"/>
<path d="M6.73134 19.5217V10.4217H8.47334L12.3473 16.8437H11.4243L15.2333 10.4217H16.9623L16.9883 19.5217H15.0123L14.9993 13.4507H15.3633L12.3213 18.5597H11.3723L8.26534 13.4507H8.70734V19.5217H6.73134ZM18.7234 19.5617C18.59 19.5617 18.475 19.5167 18.3784 19.4267C18.285 19.3334 18.2384 19.2151 18.2384 19.0717C18.2384 18.9284 18.285 18.8134 18.3784 18.7267C18.475 18.6367 18.59 18.5917 18.7234 18.5917C18.86 18.5917 18.975 18.6367 19.0684 18.7267C19.1617 18.8134 19.2084 18.9284 19.2084 19.0717C19.2084 19.2151 19.1617 19.3334 19.0684 19.4267C18.975 19.5167 18.86 19.5617 18.7234 19.5617ZM21.4358 19.5217V18.9967L21.3858 18.8817V17.9417C21.3858 17.7751 21.3341 17.6451 21.2308 17.5517C21.1308 17.4584 20.9758 17.4117 20.7658 17.4117C20.6224 17.4117 20.4808 17.4351 20.3408 17.4817C20.2041 17.5251 20.0874 17.5851 19.9908 17.6617L19.7108 17.1167C19.8574 17.0134 20.0341 16.9334 20.2408 16.8767C20.4474 16.8201 20.6574 16.7917 20.8708 16.7917C21.2808 16.7917 21.5991 16.8884 21.8258 17.0817C22.0524 17.2751 22.1658 17.5767 22.1658 17.9867V19.5217H21.4358ZM20.6158 19.5617C20.4058 19.5617 20.2258 19.5267 20.0758 19.4567C19.9258 19.3834 19.8108 19.2851 19.7308 19.1617C19.6508 19.0384 19.6108 18.9001 19.6108 18.7467C19.6108 18.5867 19.6491 18.4467 19.7258 18.3267C19.8058 18.2067 19.9308 18.1134 20.1008 18.0467C20.2708 17.9767 20.4924 17.9417 20.7658 17.9417H21.4808V18.3967H20.8508C20.6674 18.3967 20.5408 18.4267 20.4708 18.4867C20.4041 18.5467 20.3708 18.6217 20.3708 18.7117C20.3708 18.8117 20.4091 18.8917 20.4858 18.9517C20.5658 19.0084 20.6741 19.0367 20.8108 19.0367C20.9408 19.0367 21.0574 19.0067 21.1608 18.9467C21.2641 18.8834 21.3391 18.7917 21.3858 18.6717L21.5058 19.0317C21.4491 19.2051 21.3458 19.3367 21.1958 19.4267C21.0458 19.5167 20.8524 19.5617 20.6158 19.5617ZM22.8717 19.5217V16.8317H23.6517V19.5217H22.8717ZM23.2617 16.4567C23.1184 16.4567 23.0017 16.4151 22.9117 16.3317C22.8217 16.2484 22.7767 16.1451 22.7767 16.0217C22.7767 15.8984 22.8217 15.7951 22.9117 15.7117C23.0017 15.6284 23.1184 15.5867 23.2617 15.5867C23.4051 15.5867 23.5217 15.6267 23.6117 15.7067C23.7017 15.7834 23.7467 15.8834 23.7467 16.0067C23.7467 16.1367 23.7017 16.2451 23.6117 16.3317C23.5251 16.4151 23.4084 16.4567 23.2617 16.4567Z" fill="white"/>
<path d="M61.336 20L61.31 10.9H59.581L56.227 16.555L52.821 10.9H51.079V20H53.055V14.657L55.72 19.038H56.669L59.347 14.54L59.36 20H61.336ZM64.366 12.031C65.12 12.031 65.627 11.537 65.627 10.861C65.627 10.237 65.12 9.769 64.366 9.769C63.612 9.769 63.105 10.263 63.105 10.9C63.105 11.537 63.612 12.031 64.366 12.031ZM63.352 20H65.38V13.006H63.352V20ZM69.1992 13.929V13.006H67.2622V20H69.2902V16.698C69.2902 15.359 70.0312 14.748 71.1492 14.748C71.3052 14.748 71.4352 14.761 71.6042 14.774V12.902C70.5252 12.902 69.6932 13.253 69.1992 13.929ZM75.5929 12.902C74.4749 12.902 73.3439 13.201 72.5769 13.747L73.3049 15.164C73.8119 14.761 74.5789 14.514 75.3199 14.514C76.4119 14.514 76.9319 15.021 76.9319 15.892H75.3199C73.1879 15.892 72.3169 16.75 72.3169 17.985C72.3169 19.194 73.2919 20.104 74.9299 20.104C75.9569 20.104 76.6849 19.766 77.0619 19.129V20H78.9599V16.009C78.9599 13.89 77.7249 12.902 75.5929 12.902ZM75.4369 18.739C74.7219 18.739 74.2929 18.401 74.2929 17.894C74.2929 17.426 74.5919 17.075 75.5409 17.075H76.9319V17.79C76.6979 18.427 76.1129 18.739 75.4369 18.739ZM86.0084 20H88.4654L85.2934 15.97L88.2054 13.006H85.7874L82.8234 15.814V10.354H80.7954V20H82.8234V18.219L83.7984 17.257L86.0084 20ZM89.3774 20H91.4054V10.354H89.3774V20ZM100.139 16.529C100.139 14.28 98.5526 12.902 96.4986 12.902C94.3666 12.902 92.7676 14.41 92.7676 16.503C92.7676 18.583 94.3406 20.104 96.7586 20.104C98.0196 20.104 98.9946 19.714 99.6446 18.973L98.5656 17.803C98.0846 18.258 97.5516 18.479 96.8106 18.479C95.7446 18.479 95.0036 17.946 94.8086 17.075H100.1C100.113 16.906 100.139 16.685 100.139 16.529ZM96.5116 14.436C97.4216 14.436 98.0846 15.008 98.2276 15.892H94.7826C94.9256 14.995 95.5886 14.436 96.5116 14.436ZM102.256 20.104C102.958 20.104 103.517 19.571 103.517 18.83C103.517 18.076 102.958 17.582 102.256 17.582C101.554 17.582 100.995 18.076 100.995 18.83C100.995 19.571 101.554 20.104 102.256 20.104ZM107.839 12.902C106.721 12.902 105.59 13.201 104.823 13.747L105.551 15.164C106.058 14.761 106.825 14.514 107.566 14.514C108.658 14.514 109.178 15.021 109.178 15.892H107.566C105.434 15.892 104.563 16.75 104.563 17.985C104.563 19.194 105.538 20.104 107.176 20.104C108.203 20.104 108.931 19.766 109.308 19.129V20H111.206V16.009C111.206 13.89 109.971 12.902 107.839 12.902ZM107.683 18.739C106.968 18.739 106.539 18.401 106.539 17.894C106.539 17.426 106.838 17.075 107.787 17.075H109.178V17.79C108.944 18.427 108.359 18.739 107.683 18.739ZM114.055 12.031C114.809 12.031 115.316 11.537 115.316 10.861C115.316 10.237 114.809 9.769 114.055 9.769C113.301 9.769 112.794 10.263 112.794 10.9C112.794 11.537 113.301 12.031 114.055 12.031ZM113.041 20H115.069V13.006H113.041V20Z" fill="black"/>
</svg>
